# xmcd
#
# Track frame offsets: 
#        150
#        15041
#        27544
#        40030
#        51965
#        65717
#        85128
#        99330
#        112243
#        122704
#        135267
#        147525
#        158215
#        171661
#        184253
#        194751
#
# Disc length: 2773 seconds
#
# Revision: 0
# Processed by: cddbd v1.5.2PL0 Copyright (c) Steve Scherf et al.
# Submitted via: ExactAudioCopyFreeDBPlugin 1.0
#
DISCID=e70ad310
DTITLE=Aretha Franklin - Early Years CD3
DYEAR=1900
DGENRE=Soul
TTITLE0=Try A Little Tenderness
TTITLE1=Rough Lover
TTITLE2=Today I Sing The Blues
TTITLE3=It's So Heartbeakin'
TTITLE4=God Bless The Child
TTITLE5=He Will Wash You White As Snow
TTITLE6=Hard Times (No One Knows Better Than I)
TTITLE7=I Don't Know You Anymore
TTITLE8=You Made Me Love You
TTITLE9=Who Needs You
TTITLE10=I Told You So
TTITLE11=Nobody Like You
TTITLE12=Operation Heartbreak
TTITLE13=How Deep Is The Ocean
TTITLE14=Just For You
TTITLE15=Never Grow old
EXTD=
EXTT0=
EXTT1=
EXTT2=
EXTT3=
EXTT4=
EXTT5=
EXTT6=
EXTT7=
EXTT8=
EXTT9=
EXTT10=
EXTT11=
EXTT12=
EXTT13=
EXTT14=
EXTT15=
PLAYORDER=
